<?xml version="1.0" standalone="no"?>
<!DOCTYPE svg PUBLIC "-//W3C//DTD SVG 20010904//EN"
 "http://www.w3.org/TR/2001/REC-SVG-20010904/DTD/svg10.dtd">
<svg version="1.0" xmlns="http://www.w3.org/2000/svg"
 width="844.000000pt" height="641.000000pt" viewBox="0 0 844.000000 641.000000"
 preserveAspectRatio="xMidYMid meet">
<metadata>
Created by potrace 1.15, written by Peter Selinger 2001-2017
</metadata>
<g transform="translate(0.000000,641.000000) scale(0.100000,-0.100000)"
fill="#000000" stroke="none">
<path d="M2836 6284 c-9 -8 -16 -30 -17 -47 -3 -130 -19 -340 -33 -432 -9 -60
-19 -129 -22 -151 -4 -36 -9 -42 -33 -47 -23 -5 -29 -12 -34 -44 -4 -21 -7
-55 -7 -75 0 -31 -4 -38 -20 -38 -19 0 -20 -7 -20 -95 0 -57 -4 -95 -10 -95
-6 0 -10 -152 -11 -432 -1 -238 -4 -460 -8 -493 -5 -52 -9 -60 -28 -63 l-23
-3 0 651 c0 551 -2 654 -14 666 -21 21 -351 21 -372 0 -11 -12 -14 -61 -14
-265 0 -244 -1 -251 -20 -251 -15 0 -20 7 -20 25 0 21 -5 25 -30 25 -16 0 -30
-4 -30 -10 0 -5 -18 -10 -40 -10 -29 0 -40 -4 -40 -15 0 -9 -9 -15 -25 -15
l-25 0 0 -309 c0 -212 -3 -310 -11 -313 -6 -2 -8 -14 -4 -31 6 -23 13 -27 41
-27 l34 0 0 315 0 315 25 0 c16 0 25 6 25 15 0 8 5 15 10 15 6 0 10 -7 10 -15
0 -12 16 -15 80 -15 l80 0 0 250 c0 160 4 250 10 250 6 0 10 7 10 15 0 13 20
15 120 15 96 0 120 -3 120 -14 0 -8 7 -16 15 -20 13 -5 15 -87 15 -656 l0
-650 75 0 75 0 0 54 c0 30 5 58 10 61 6 4 10 159 11 428 1 232 4 472 8 532 6
104 7 110 29 113 20 3 22 8 22 72 0 59 3 68 19 73 30 7 47 62 61 183 20 186
30 187 50 4 13 -117 38 -190 64 -190 14 0 26 -49 26 -106 0 -22 6 -33 18 -36
17 -5 19 -21 25 -149 4 -79 7 -181 7 -226 l0 -83 75 0 75 0 0 160 0 160 40 0
c39 0 40 1 40 35 0 28 4 35 20 35 16 0 20 -7 20 -35 0 -34 1 -35 40 -35 33 0
40 3 40 20 0 11 7 20 15 20 8 0 15 -9 15 -20 0 -17 7 -20 45 -20 l45 0 0 -390
0 -390 75 0 75 0 0 305 c0 252 2 305 14 305 7 0 16 13 19 29 5 22 21 38 67 67
l60 37 1 66 c1 36 5 98 9 136 6 62 7 54 8 -63 l2 -134 35 22 35 22 0 -296 0
-296 30 0 30 0 0 100 0 100 84 0 c85 0 85 0 89 28 2 15 5 -37 6 -114 l1 -142
25 -4 c13 -3 27 -3 30 0 3 3 5 137 5 299 l0 293 150 0 150 0 0 -90 0 -90 45 0
c43 0 45 1 45 30 l0 30 75 0 75 0 0 -30 0 -30 60 0 60 0 0 -125 0 -125 45 0
45 0 0 -135 0 -135 30 0 30 0 0 -126 0 -127 60 6 c80 7 90 17 90 86 1 31 5 88
11 126 5 39 13 90 16 115 3 25 12 50 19 55 7 6 17 36 24 68 6 31 13 57 15 57
2 0 9 -26 15 -57 7 -32 17 -62 24 -68 7 -5 16 -30 19 -55 3 -25 11 -76 16
-115 6 -38 10 -94 11 -123 0 -83 9 -92 85 -92 l65 0 0 104 c0 59 4 108 10 111
6 3 10 46 10 96 0 71 3 89 15 89 8 0 19 9 25 20 8 15 21 20 48 20 64 -1 123
-17 143 -39 11 -11 24 -21 29 -21 6 0 10 -16 10 -35 l0 -34 118 -3 117 -3 3
-37 c3 -36 5 -38 38 -38 30 0 34 3 34 25 0 18 4 23 15 19 8 -4 15 -15 15 -25
0 -17 8 -19 75 -19 l75 0 0 -96 0 -95 38 3 c30 2 38 7 40 26 5 32 55 28 60 -5
2 -15 10 -23 23 -23 18 0 19 -8 19 -136 l0 -135 28 3 27 3 1 192 0 192 -23 10
c-31 14 -33 14 -33 -4 0 -12 -13 -15 -60 -15 l-60 0 0 64 0 65 -47 3 -48 3 -3
48 -3 47 -45 0 c-40 0 -44 -2 -44 -25 0 -22 -4 -25 -34 -25 -25 0 -35 5 -39
20 -5 19 -14 20 -121 20 -101 0 -116 2 -116 17 0 20 -77 92 -105 98 -11 2 -52
7 -92 10 -78 7 -95 1 -150 -49 -31 -28 -33 -34 -33 -97 0 -71 -17 -264 -26
-288 -13 -37 -25 16 -30 130 -3 68 -10 128 -15 133 -5 6 -9 24 -9 40 0 46 -19
106 -33 106 -13 0 -47 144 -47 199 0 29 -2 31 -35 31 -33 0 -35 -2 -35 -32 0
-58 -32 -198 -45 -198 -13 0 -35 -71 -35 -112 0 -13 -4 -28 -10 -34 -5 -5 -11
-66 -14 -134 -2 -69 -4 -126 -5 -127 -1 -2 -8 -3 -16 -3 -12 0 -15 20 -15 120
l0 120 -30 0 -30 0 0 135 0 135 -45 0 -45 0 0 125 0 124 -62 3 c-63 3 -63 3
-66 36 l-3 32 -115 0 -114 0 0 55 0 54 -92 3 -93 3 -3 28 c-3 24 -8 27 -38 27
-36 0 -55 -12 -67 -42 -5 -14 -18 -18 -67 -18 l-60 0 0 -150 0 -150 -25 0
c-20 0 -25 5 -25 25 0 23 -4 25 -45 25 l-45 0 0 -50 c0 -43 -3 -50 -20 -50
-19 0 -20 7 -20 215 l0 216 -30 -16 c-16 -8 -31 -15 -35 -15 -3 0 -5 102 -5
226 0 210 -1 225 -17 220 -10 -3 -36 -10 -59 -15 l-41 -11 -6 -219 c-4 -121
-11 -230 -16 -243 -8 -20 -10 -17 -10 20 l-1 42 -40 0 -40 0 0 -78 c0 -65 -3
-80 -20 -95 -11 -9 -26 -14 -35 -11 -13 5 -15 -33 -15 -321 0 -306 -1 -326
-17 -323 -17 3 -18 31 -21 396 l-2 392 -40 0 c-27 0 -43 5 -46 15 -4 11 -21
15 -55 15 -42 0 -49 3 -49 20 0 18 -7 20 -75 20 l-75 0 0 -35 c0 -34 -1 -35
-40 -35 l-40 0 0 -159 c0 -127 -3 -160 -14 -164 -8 -3 -17 -3 -20 0 -3 4 -6
64 -6 135 0 79 -4 128 -10 128 -6 0 -10 38 -10 95 0 88 -1 95 -20 95 -16 0
-20 7 -20 38 0 20 -3 54 -7 75 -5 32 -11 39 -34 44 -16 3 -29 8 -29 12 0 7
-27 218 -40 311 -5 36 -10 106 -10 155 0 133 -10 194 -31 205 -13 7 -22 6 -33
-6z"/>
<path d="M4644 4381 c-107 -49 -139 -199 -62 -297 47 -59 156 -81 233 -45 73
34 105 85 105 171 0 27 -5 61 -11 77 -35 94 -164 140 -265 94z"/>
<path d="M820 3490 l0 -750 530 0 530 0 0 145 0 145 -360 0 -360 0 0 180 0
180 300 0 301 0 -3 138 -3 137 -297 3 -298 2 0 145 0 145 335 0 335 0 0 140 0
140 -505 0 -505 0 0 -750z"/>
<path d="M6675 3916 c-49 -30 -98 -96 -131 -176 -37 -92 -39 -90 76 -90 l100
0 0 145 c0 80 -1 145 -2 145 -2 0 -21 -11 -43 -24z"/>
<path d="M6770 3795 l0 -145 101 0 101 0 -7 28 c-22 89 -108 218 -166 248
l-29 15 0 -146z"/>
<path d="M2410 3898 c-52 -5 -137 -18 -189 -28 -52 -11 -98 -20 -103 -20 -4 0
-8 -250 -8 -555 l0 -555 160 0 160 0 0 440 0 440 25 6 c14 4 66 4 116 2 70 -3
95 -9 117 -25 72 -53 82 -118 82 -540 l0 -323 160 0 160 0 0 364 c0 399 -8
483 -57 583 -90 182 -273 244 -623 211z"/>
<path d="M6510 3887 c-96 -40 -201 -125 -252 -206 l-20 -31 109 0 110 0 13 43
c13 45 56 132 91 185 25 38 21 39 -51 9z"/>
<path d="M6919 3878 c35 -54 78 -140 92 -186 l12 -43 113 3 112 3 -16 28 c-32
55 -139 144 -223 186 -102 51 -119 53 -90 9z"/>
<path d="M3266 3831 c83 -282 250 -720 361 -953 l66 -138 132 0 132 0 66 138
c113 236 223 520 318 822 27 85 52 161 54 168 3 9 -33 12 -163 12 l-168 0 -38
-137 c-45 -160 -184 -584 -195 -596 -8 -8 -162 458 -208 630 l-28 103 -172 0
-172 0 15 -49z"/>
<path d="M4570 3310 l0 -570 160 0 160 0 0 570 0 570 -160 0 -160 0 0 -570z"/>
<path d="M5150 3745 l0 -135 236 -2 235 -3 -117 -145 c-159 -197 -251 -319
-323 -429 l-61 -93 0 -99 0 -99 470 0 470 0 0 135 0 135 -270 0 c-148 0 -270
3 -270 8 0 22 267 352 454 562 l76 85 0 108 0 107 -450 0 -450 0 0 -135z"/>
<path d="M7132 3585 c-114 -44 -221 -106 -277 -161 -60 -60 -116 -164 -134
-254 -15 -70 -27 -280 -16 -280 4 0 22 11 40 24 26 20 36 40 59 125 16 56 30
100 33 98 2 -3 -1 -40 -6 -83 -5 -43 -8 -80 -7 -81 1 -2 25 19 53 45 39 37 56
63 78 120 28 75 43 93 25 31 -18 -61 -11 -66 31 -20 24 27 44 62 51 90 10 40
13 43 18 21 5 -23 8 -21 48 34 55 77 54 60 -2 -34 -24 -41 -43 -76 -41 -78 1
-1 21 2 45 7 54 12 40 -1 -25 -24 -38 -14 -60 -30 -94 -73 -40 -50 -42 -54
-20 -49 48 11 104 20 99 14 -3 -3 -43 -19 -88 -37 -46 -18 -112 -53 -146 -79
-34 -25 -76 -56 -92 -68 l-29 -21 60 -29 c53 -25 71 -28 155 -28 108 0 145 13
204 72 136 136 173 423 86 655 -33 90 -35 91 -108 63z"/>
<path d="M6185 3538 c-9 -29 -19 -79 -22 -110 l-6 -58 130 0 130 0 7 73 c4 39
9 89 13 110 l6 37 -121 0 -121 0 -16 -52z"/>
<path d="M6496 3568 c-4 -13 -9 -62 -13 -110 l-6 -88 122 0 121 0 0 110 0 110
-109 0 c-104 0 -109 -1 -115 -22z"/>
<path d="M6770 3503 l0 -87 48 46 c26 25 76 65 111 87 l64 41 -111 0 -112 0 0
-87z"/>
<path d="M6163 3268 c3 -35 13 -87 22 -115 l16 -53 121 0 121 0 -6 38 c-3 20
-9 72 -13 115 l-7 77 -130 0 -130 0 6 -62z"/>
<path d="M6483 3238 c10 -144 5 -138 98 -138 75 0 79 1 79 23 0 12 9 54 21 92
38 129 49 115 -86 115 l-118 0 6 -92z"/>
<path d="M6249 3033 c41 -77 144 -168 249 -220 72 -36 99 -38 70 -6 -22 25
-83 150 -98 201 l-13 42 -109 0 c-100 0 -108 -1 -99 -17z"/>
<path d="M6524 3018 c9 -48 58 -148 91 -186 24 -29 105 -81 105 -67 0 3 -16
25 -35 51 -34 45 -35 47 -35 140 l0 94 -66 0 -66 0 6 -32z"/>
<path d="M1673 2110 c-51 -12 -81 -37 -94 -79 -23 -76 20 -127 139 -171 71
-26 102 -58 102 -105 0 -70 -103 -110 -173 -66 -18 11 -39 32 -45 46 -7 16
-17 23 -27 19 -38 -15 5 -82 70 -110 46 -19 91 -17 142 5 52 24 76 59 75 112
-1 55 -35 90 -132 135 -91 42 -110 59 -110 96 0 44 16 66 55 77 48 13 99 -3
127 -39 17 -22 27 -27 38 -20 13 8 12 13 -6 36 -42 57 -97 78 -161 64z"/>
<path d="M4410 2105 c-58 -18 -128 -78 -151 -129 -24 -54 -24 -148 0 -202 42
-92 159 -153 259 -134 81 15 126 46 99 68 -10 9 -23 7 -53 -9 -59 -31 -150
-23 -201 17 -48 38 -83 106 -83 159 0 53 35 121 83 159 50 40 142 48 201 17
21 -11 43 -18 47 -15 21 13 6 37 -33 54 -62 26 -116 31 -168 15z"/>
<path d="M2900 2090 c0 -18 7 -20 70 -20 l70 0 0 -215 c0 -208 1 -215 20 -215
19 0 20 7 20 215 l0 215 65 0 c58 0 65 2 65 20 0 19 -7 20 -155 20 -148 0
-155 -1 -155 -20z"/>
<path d="M3280 1875 c0 -225 1 -235 19 -235 18 0 20 10 23 121 l3 121 37 34
c31 28 46 34 82 34 37 0 48 -5 70 -31 25 -29 26 -36 26 -155 0 -117 1 -124 20
-124 19 0 20 7 20 125 0 137 -8 166 -56 204 -51 40 -145 23 -189 -35 -13 -17
-14 -9 -15 79 0 90 -1 97 -20 97 -19 0 -20 -7 -20 -235z"/>
<path d="M4690 1875 c0 -228 1 -235 20 -235 19 0 20 7 20 105 0 115 10 148 56
184 26 21 84 28 119 15 34 -13 45 -59 45 -184 l0 -120 26 0 27 0 -5 129 c-4
99 -10 136 -24 159 -42 73 -146 83 -210 21 l-34 -33 0 97 c0 90 -1 97 -20 97
-19 0 -20 -7 -20 -235z"/>
<path d="M2000 1969 c-115 -66 -118 -239 -7 -303 23 -13 57 -26 75 -30 46 -8
116 11 142 39 30 32 10 40 -37 15 -44 -23 -90 -26 -137 -6 -40 17 -76 60 -76
92 l0 24 151 0 152 0 -6 40 c-16 121 -153 190 -257 129z m121 -19 c42 -12 85
-54 94 -92 l7 -28 -135 0 -136 0 9 33 c10 35 61 84 94 90 12 2 23 5 26 6 3 0
21 -4 41 -9z"/>
<path d="M2405 1976 c-82 -38 -120 -148 -81 -239 40 -97 195 -135 278 -68 38
31 11 46 -37 20 -71 -36 -168 -11 -201 52 -30 58 -29 59 137 59 l152 0 -6 46
c-5 49 -27 85 -70 118 -34 25 -129 32 -172 12z m152 -43 c25 -17 47 -49 55
-80 l6 -23 -135 0 -135 0 7 28 c9 36 52 80 90 91 35 11 81 4 112 -16z"/>
<path d="M3740 1979 c-33 -13 -68 -47 -87 -82 -19 -37 -19 -127 1 -165 49 -95
197 -128 278 -63 37 31 11 46 -37 21 -72 -37 -158 -18 -195 42 -40 67 -38 68
131 68 l152 0 -5 45 c-7 55 -47 112 -94 131 -38 16 -107 17 -144 3z m148 -47
c25 -16 52 -61 52 -87 0 -13 -19 -15 -130 -15 -123 0 -130 1 -130 20 0 28 57
88 94 99 37 11 82 4 114 -17z"/>
<path d="M5140 1968 c-112 -57 -122 -223 -19 -298 70 -50 155 -45 216 12 l23
21 0 -31 c0 -25 4 -32 20 -32 19 0 20 7 20 175 0 168 -1 175 -20 175 -16 0
-20 -7 -20 -36 l0 -37 -25 27 c-48 51 -122 60 -195 24z m157 -34 c59 -37 78
-118 44 -187 -64 -131 -251 -81 -251 68 0 109 116 176 207 119z"/>
<path d="M5480 1815 c0 -168 1 -175 20 -175 19 0 20 7 20 110 0 80 4 119 15
140 34 65 139 80 179 27 18 -25 21 -45 24 -153 3 -114 5 -124 23 -124 18 0 19
8 19 120 0 136 -11 175 -58 209 -54 38 -149 22 -186 -31 -16 -22 -16 -22 -16
15 0 30 -4 37 -20 37 -19 0 -20 -7 -20 -175z"/>
<path d="M5935 1976 c-39 -17 -80 -65 -95 -112 -53 -160 153 -301 272 -187
l28 27 0 -43 c0 -94 -60 -135 -163 -114 -57 12 -62 11 -54 -11 15 -38 139 -43
197 -9 55 32 60 53 60 267 0 189 -1 196 -20 196 -16 0 -20 -7 -20 -32 l0 -31
-22 20 c-13 11 -33 26 -45 32 -29 15 -101 13 -138 -3z m106 -26 c19 -5 48 -23
64 -40 23 -24 29 -41 33 -87 3 -49 0 -64 -20 -93 -82 -121 -270 -35 -241 111
9 50 32 80 78 100 47 22 41 21 86 9z"/>
<path d="M6350 1979 c-33 -13 -68 -47 -87 -82 -19 -37 -19 -127 1 -165 49 -95
192 -127 276 -62 39 30 14 45 -35 20 -72 -37 -158 -18 -195 42 -40 67 -38 68
131 68 l152 0 -5 45 c-7 55 -47 112 -94 131 -38 16 -107 17 -144 3z m127 -38
c25 -12 48 -32 57 -50 31 -60 29 -61 -114 -61 -143 0 -148 2 -113 61 17 29 84
69 113 69 8 0 34 -9 57 -19z"/>
</g>
</svg>
